<svg width="19" height="19" viewBox="0 0 19 19" fill="none" xmlns="http://www.w3.org/2000/svg">
<path d="M9.35 0C4.125 0 0 4.21667 0 9.35C0 13.475 2.65833 17.05 6.41667 18.2417C6.875 18.3333 7.05833 18.0583 7.05833 17.7833V16.225C4.4 16.8667 3.85 15.0333 3.85 15.0333C3.39167 13.9333 2.84167 13.6583 2.84167 13.6583C2.01667 13.1083 2.93333 13.1083 2.93333 13.1083C3.85 13.2 4.4 14.1167 4.4 14.1167C5.225 15.5833 6.6 15.125 7.15 14.9417C7.24167 14.3 7.51667 13.9333 7.7 13.6583C5.59167 13.3833 3.39167 12.65 3.39167 9.075C3.39167 8.06667 3.75833 7.24167 4.4 6.50833C4.21667 6.14167 3.94167 5.13333 4.4 3.94167C4.4 3.94167 5.225 3.66667 6.96667 4.85833C7.7 4.675 8.525 4.58333 9.35 4.58333C10.175 4.58333 11 4.675 11.7333 4.85833C13.5667 3.66667 14.3 3.94167 14.3 3.94167C14.85 5.225 14.4833 6.14167 14.3917 6.41667C15.0333 7.05833 15.4 7.88333 15.4 8.98333C15.4 12.5583 13.2 13.3833 11.0917 13.5667C11.4583 13.8417 11.7333 14.3917 11.7333 15.3083V17.875C11.7333 18.15 11.9167 18.425 12.375 18.3333C16.1333 17.05 18.7917 13.5667 18.7917 9.44167C18.7 4.21667 14.575 0 9.35 0Z" fill="#EDF2F4"/>
</svg>
