<svg width="17" height="17" viewBox="0 0 17 17" fill="none" xmlns="http://www.w3.org/2000/svg">
<path d="M16.5 16.5V9.9C16.5 7.7 14.6667 5.86667 12.4667 5.86667C11.4583 5.86667 10.175 6.50833 9.625 7.51667V6.14167H6.14167V16.5H9.625V10.3583C9.625 9.44167 10.3583 8.61667 11.3667 8.61667C12.2833 8.61667 13.1083 9.35 13.1083 10.3583V16.5H16.5ZM2.10833 4.21667C3.3 4.21667 4.21667 3.3 4.21667 2.10833C4.21667 0.916667 3.20833 0 2.10833 0C0.916667 0 0 0.916667 0 2.10833C0 3.20833 0.916667 4.21667 2.10833 4.21667ZM3.85 16.5V6.14167H0.366667V16.5H3.85Z" fill="#EDF2F4"/>
</svg>
