<svg width="19" height="19" viewBox="0 0 19 19" fill="none" xmlns="http://www.w3.org/2000/svg">
<path d="M9.16667 11.9167C9.90917 11.9167 10.5417 11.6417 11.1008 11.1008C11.6417 10.5417 11.9167 9.90917 11.9167 9.16667C11.9167 8.42417 11.6417 7.79167 11.1008 7.2325C10.5417 6.69167 9.90917 6.41667 9.16667 6.41667C8.42417 6.41667 7.79167 6.69167 7.2325 7.2325C6.69167 7.79167 6.41667 8.42417 6.41667 9.16667C6.41667 9.90917 6.69167 10.5417 7.2325 11.1008C7.79167 11.6417 8.42417 11.9167 9.16667 11.9167ZM9.16667 0C11.6875 0 13.8417 0.916666 15.6292 2.70417C17.4167 4.49167 18.3333 6.64583 18.3333 9.16667V10.4958C18.3333 11.4125 18.0125 12.1917 17.4167 12.8333C16.775 13.4475 16.0417 13.75 15.125 13.75C14.025 13.75 13.1175 13.2917 12.43 12.375C11.5133 13.2917 10.4317 13.75 9.16667 13.75C7.91083 13.75 6.82917 13.2917 5.92167 12.4117C5.04167 11.5042 4.58333 10.4317 4.58333 9.16667C4.58333 7.91083 5.04167 6.82917 5.92167 5.92167C6.82917 5.04167 7.91083 4.58333 9.16667 4.58333C10.4317 4.58333 11.5042 5.04167 12.4117 5.92167C13.2917 6.82917 13.75 7.91083 13.75 9.16667V10.4958C13.75 10.8717 13.8967 11.2017 14.1717 11.4858C14.4467 11.77 14.7675 11.9167 15.125 11.9167C15.51 11.9167 15.8308 11.77 16.1058 11.4858C16.3808 11.2017 16.5 10.8717 16.5 10.4958V9.16667C16.5 7.15917 15.7942 5.43583 14.3458 3.9875C12.8975 2.53917 11.1742 1.83333 9.16667 1.83333C7.15917 1.83333 5.43583 2.53917 3.9875 3.9875C2.53917 5.43583 1.83333 7.15917 1.83333 9.16667C1.83333 11.1742 2.53917 12.8975 3.9875 14.3458C5.43583 15.7942 7.15917 16.5 9.16667 16.5H13.75V18.3333H9.16667C6.64583 18.3333 4.49167 17.4167 2.70417 15.6292C0.916666 13.8417 0 11.6875 0 9.16667C0 6.64583 0.916666 4.49167 2.70417 2.70417C4.49167 0.916666 6.64583 0 9.16667 0Z" fill="#EDF2F4"/>
</svg>
